<?xml version="1.0" encoding="utf-8"?>
<!-- Generator: Adobe Illustrator 19.2.0, SVG Export Plug-In . SVG Version: 6.00 Build 0)  -->
<svg version="1.1" id="icon-kitchens" xmlns="http://www.w3.org/2000/svg" xmlns:xlink="http://www.w3.org/1999/xlink" x="0px"
	 y="0px" width="31.8px" height="28.5px" viewBox="0 0 31.8 28.5" style="enable-background:new 0 0 31.8 28.5;"
	 xml:space="preserve">
<style type="text/css">
	.st0{fill:#008CD1;}
</style>
<g>
	<path class="st0" d="M6.2,10C6,9.9,5.7,9.9,5.6,9.7c-0.2-0.3,0-0.5,0.2-0.7C6.9,8.1,8,7.2,9,6.4c0.8-0.7,1.7-1.4,2.5-2
		c0.3-0.2,0.3-0.4,0.3-0.7c0-0.9,0-1.9,0-2.8c0-0.6,0.2-0.7,0.7-0.7c2.2,0,4.3,0,6.5,0c0.6,0,0.7,0.2,0.7,0.7c0,0.9,0,1.9,0,2.8
		c0,0.3,0.1,0.5,0.3,0.7c1.8,1.4,3.6,2.9,5.3,4.3C25.7,8.8,25.9,8.9,26,9c0.1,0.2,0.2,0.4,0.1,0.6c0,0.2-0.3,0.3-0.5,0.4"/>
	<path class="st0" d="M8.7,22.9c0,1.7,0,3.4,0,5c0,0.5-0.1,0.6-0.6,0.6c-2.5,0-5.1,0-7.6,0c-0.4,0-0.6-0.1-0.6-0.6
		c0-3.4,0-6.8,0-10.2c0-0.4,0.1-0.5,0.5-0.5c2.5,0,5.1,0,7.6,0c0.4,0,0.6,0.1,0.6,0.6C8.7,19.5,8.7,21.2,8.7,22.9z"/>
	<path class="st0" d="M31.8,22.9c0,1.7,0,3.4,0,5.1c0,0.4-0.1,0.6-0.6,0.6c-2.5,0-5.1,0-7.6,0c-0.4,0-0.6-0.2-0.6-0.6
		c0-3.4,0-6.8,0-10.1c0-0.4,0.1-0.6,0.6-0.6c2.5,0,5.1,0,7.6,0c0.4,0,0.6,0.2,0.5,0.6C31.8,19.5,31.8,21.2,31.8,22.9z"/>
	<path class="st0" d="M9.9,20.9c4,0,7.9,0,11.9,0c0,0.2,0,0.3,0,0.4c0,2.2,0,4.4,0,6.6c0,0.5-0.1,0.6-0.6,0.6c-3.6,0-7.2,0-10.8,0
		c-0.4,0-0.6-0.1-0.6-0.5c0-2.3,0-4.6,0-6.8C9.9,21.1,9.9,21,9.9,20.9z M13.5,26c1.6,0,3.2,0,4.7,0c0-0.9,0-1.7,0-2.6
		c-1.6,0-3.1,0-4.7,0C13.5,24.3,13.5,25.1,13.5,26z"/>
	<path class="st0" d="M21.1,17.2c0.7,0,0.7,0,0.7,0.7c0,0.6,0,1.1,0,1.7c-4,0-8,0-12,0c0-0.7,0-1,0-1.7c0-0.7,0-0.7,0.6-0.7"/>
</g>
</svg>
