<?xml version="1.0" encoding="utf-8"?>
<!-- Generator: Adobe Illustrator 19.2.0, SVG Export Plug-In . SVG Version: 6.00 Build 0)  -->
<svg version="1.1" id="icon-bath" xmlns="http://www.w3.org/2000/svg" xmlns:xlink="http://www.w3.org/1999/xlink" x="0px" y="0px"
	 width="32.2px" height="29.5px" viewBox="0 0 32.2 29.5" style="enable-background:new 0 0 32.2 29.5;" xml:space="preserve">
<style type="text/css">
	.st0{fill:#008CD1;}
</style>
<g>
	<path class="st0" d="M0,15.7c0.1,0,0.1,0,0.2,0c8.8,0,17.5,0,26.3,0c0.1,0,0.1,0,0.2,0c0-0.1,0-0.1,0-0.2c0-4.4,0-8.9,0-13.3
		c0-0.3-0.1-0.6-0.4-0.7c-0.3-0.1-0.6-0.1-0.8,0.2c-0.6,0.6-1.3,1.3-1.9,1.9c0,0,0,0,0,0C23.6,3.9,23.8,4,24,4.2
		c0.2,0.2,0.3,0.3,0.5,0.5c0.4,0.5,0.5,1,0.3,1.6c-0.2,0.6-0.6,1.1-1,1.6c-2-2-3.9-3.9-5.9-5.9c0.5-0.4,1.1-0.9,1.8-1
		c0.5-0.1,1,0,1.3,0.4c0.4,0.4,0.8,0.8,1.2,1.2c0,0,0.1,0.1,0.1,0.1c0.1-0.1,0.1-0.1,0.1-0.1c0.7-0.7,1.3-1.3,2-2
		c0.6-0.6,1.3-0.8,2.1-0.5c0.8,0.3,1.3,0.8,1.4,1.6c0,0.2,0,0.4,0,0.6c0,4.4,0,8.9,0,13.3c0,0,0,0.1,0,0.1c1.4,0,2.8,0,4.2,0
		c0,0,0,0,0,0.1c0,0,0,0,0,0.1c-0.7,2.6-1.4,5.2-2,7.8c-0.2,0.6-0.3,1.2-0.6,1.8c-0.3,0.6-0.8,0.9-1.5,0.9c-0.6,0-1.1,0-1.7,0
		c0,0-0.1,0-0.2,0c0.2,1,0.3,2,0.5,3.1c-0.5,0-1.1,0-1.6,0c0,0-0.1-0.1-0.1-0.1c-0.2-0.7-0.3-1.5-0.5-2.2c-0.1-0.3-0.1-0.5-0.2-0.7
		c-5.5,0-11,0-16.5,0c0,0,0,0.1,0,0.1c-0.2,0.9-0.4,1.9-0.6,2.8c0,0.1-0.1,0.1-0.2,0.1c-0.5,0-0.9,0-1.4,0c0,0-0.1,0-0.1,0
		c0.2-1,0.3-2,0.5-3c-0.1,0-0.1,0-0.2,0c-0.6,0-1.2,0-1.8,0c-0.5,0-0.9-0.1-1.2-0.5c-0.1-0.2-0.2-0.3-0.3-0.5
		c-0.2-0.4-0.4-0.9-0.5-1.3c-0.6-2.4-1.2-4.7-1.9-7.1C0.2,16.6,0.1,16.2,0,15.7C0,15.8,0,15.8,0,15.7z"/>
	<path class="st0" d="M16,5.7c0.3,0.3,0.5,0.5,0.8,0.8c-0.5,0.3-0.9,0.7-1.4,1c-0.3-0.3-0.6-0.5-0.8-0.8C15.1,6.4,15.6,6.1,16,5.7z"
		/>
	<path class="st0" d="M18.3,10.4c0.3-0.4,0.7-0.9,1-1.3c0.3,0.3,0.5,0.5,0.8,0.8c-0.3,0.4-0.7,0.9-1,1.4
		C18.8,10.9,18.5,10.7,18.3,10.4z"/>
	<path class="st0" d="M21,13.1c-0.3-0.3-0.5-0.5-0.8-0.8c0.3-0.5,0.6-1,0.9-1.5c0.3,0.3,0.5,0.5,0.8,0.8
		C21.5,12.1,21.3,12.6,21,13.1z"/>
	<path class="st0" d="M12.8,4.9c0.3-0.2,0.7-0.4,1.1-0.6c0.1-0.1,0.3-0.2,0.4-0.2c0,0,0.1,0,0.1,0c0.2,0.2,0.5,0.5,0.7,0.7
		c-0.5,0.3-1,0.6-1.5,0.9C13.3,5.4,13,5.1,12.8,4.9z"/>
	<path class="st0" d="M17.7,7.5c0.2,0.2,0.4,0.4,0.7,0.6c-0.4,0.4-0.8,0.8-1.2,1.2c-0.2-0.2-0.5-0.5-0.7-0.7
		C16.9,8.2,17.3,7.8,17.7,7.5z"/>
	<path class="st0" d="M18.4,12.2c-0.3,0.4-0.5,0.7-0.8,1.1c-0.3-0.3-0.6-0.6-0.9-0.9c0.3-0.3,0.5-0.7,0.8-1
		C17.8,11.6,18.1,11.9,18.4,12.2z"/>
	<path class="st0" d="M13.7,7.4C14,7.7,14.2,8,14.5,8.3c-0.4,0.3-0.7,0.5-1.1,0.8c-0.3-0.3-0.6-0.6-0.9-0.9
		C12.9,7.9,13.3,7.7,13.7,7.4z"/>
	<path class="st0" d="M19,4.9c-0.4,0.3-0.8,0.7-1.3,1c-0.3-0.3-0.5-0.5-0.8-0.8c0.4-0.3,0.9-0.6,1.3-0.9C18.5,4.4,18.7,4.6,19,4.9z"
		/>
	<path class="st0" d="M18.8,14.4c0.2-0.4,0.5-0.8,0.7-1.2c0.2,0.2,0.4,0.4,0.6,0.6c0.1,0.1,0.2,0.2,0.2,0.3c0,0.1-0.1,0.2-0.1,0.3
		c-0.2,0.3-0.3,0.6-0.5,0.9C19.4,15,19.1,14.7,18.8,14.4z"/>
	<path class="st0" d="M10.5,6.1c0.4-0.2,0.8-0.4,1.2-0.6c0,0,0.1,0,0.1,0C12,5.7,12.3,6,12.6,6.3c-0.1,0.1-0.3,0.2-0.4,0.2
		c-0.2,0.1-0.5,0.3-0.7,0.4c0,0-0.1,0-0.1,0C11,6.7,10.8,6.4,10.5,6.1z"/>
	<path class="st0" d="M20,8.1c0.3-0.4,0.6-0.8,0.9-1.2c0.2,0.2,0.5,0.5,0.7,0.7c-0.3,0.4-0.6,0.9-0.9,1.3C20.5,8.6,20.3,8.4,20,8.1z
		"/>
	<path class="st0" d="M23.2,9.1c-0.3,0.5-0.5,0.9-0.8,1.4c-0.2-0.2-0.5-0.5-0.7-0.7c0,0,0-0.1,0-0.1c0.3-0.4,0.5-0.9,0.8-1.3
		C22.7,8.7,22.9,8.9,23.2,9.1z"/>
	<path class="st0" d="M17.5,3.3c-0.5,0.3-1,0.6-1.4,0.9c-0.2-0.2-0.5-0.5-0.7-0.7c0.2-0.1,0.4-0.2,0.6-0.3c0.3-0.1,0.5-0.3,0.7-0.4
		c0.1,0,0.1,0,0.2,0C17.1,2.9,17.3,3.1,17.5,3.3z"/>
	<path class="st0" d="M19.2,7.3c-0.2-0.2-0.5-0.5-0.7-0.7c0.4-0.4,0.7-0.7,1.1-1.1c0.2,0.2,0.5,0.4,0.7,0.6
		C19.9,6.6,19.6,7,19.2,7.3z"/>
	<path class="st0" d="M15.7,9.5c0.2,0.2,0.4,0.4,0.6,0.6c-0.3,0.3-0.6,0.6-0.9,0.9c-0.2-0.2-0.4-0.4-0.7-0.7
		C15.1,10.1,15.4,9.8,15.7,9.5z"/>
</g>
</svg>
