<?xml version="1.0" encoding="utf-8"?>
<!-- Generator: Adobe Illustrator 19.2.0, SVG Export Plug-In . SVG Version: 6.00 Build 0)  -->
<svg version="1.1" id="icon-safety" xmlns="http://www.w3.org/2000/svg" xmlns:xlink="http://www.w3.org/1999/xlink" x="0px"
	 y="0px" width="35.7px" height="30.9px" viewBox="0 0 35.7 30.9" style="enable-background:new 0 0 35.7 30.9;"
	 xml:space="preserve">
<style type="text/css">
	.st0{fill:#008CD1;}
</style>
<g>
	<path class="st0" d="M0,16.4c0.2-0.6,0.4-1.2,0.7-1.7c0.8-2.1,1.7-4.3,2.5-6.4c0.2-0.5,0.4-1,0.8-1.4C4.4,6.4,5,6.1,5.7,6
		C6.8,5.8,7.9,5.8,9,6c0.8,0.2,1.5,0.6,1.9,1.3c0.4,0.6,0.7,1.3,0.9,2c0.9,2.3,1.8,4.7,2.7,7c0.1,0.3,0,0.7-0.3,0.8
		c-0.3,0.1-0.6,0-0.8-0.3c-1.1-2.3-2.3-4.6-3.4-6.8c0,0,0-0.1-0.1-0.1c0.6,3.6,1.2,7.1,1.7,10.7c-0.6,0-1.1,0-1.7,0
		c0,0.3,0,0.5,0,0.8c-0.1,1-0.1,2-0.2,3c-0.1,1.2-0.1,2.4-0.2,3.6c0,0.8-0.1,1.6-0.1,2.3c0,0.3-0.3,0.6-0.6,0.6
		c-0.3,0-0.6-0.2-0.6-0.6c0-0.6-0.1-1.2-0.1-1.8c-0.1-1-0.1-1.9-0.2-2.9c0-0.8-0.1-1.5-0.1-2.3c-0.1-0.9-0.1-1.8-0.2-2.7
		c0,0,0-0.1,0-0.1c-0.2,0-0.4,0-0.6,0c0,0.2,0,0.3,0,0.5c-0.1,1.2-0.1,2.4-0.2,3.6c-0.1,1.2-0.1,2.4-0.2,3.5c0,0.7-0.1,1.4-0.1,2.2
		c0,0.3-0.3,0.5-0.6,0.5c-0.3,0-0.6-0.2-0.7-0.5c0-0.1,0-0.2,0-0.4c-0.1-1.2-0.1-2.4-0.2-3.5c-0.1-1.2-0.1-2.3-0.2-3.5
		c0-0.8-0.1-1.6-0.1-2.4c-0.6,0-1.1,0-1.7,0C3.6,17,4.1,13.4,4.7,9.9c0,0,0,0,0,0c0,0-0.1,0.1-0.1,0.1c-1.1,2.3-2.3,4.5-3.4,6.8
		c-0.2,0.4-0.6,0.5-0.9,0.3C0.1,17,0.1,16.9,0,16.7C0,16.6,0,16.5,0,16.4z"/>
	<path class="st0" d="M25.6,9.8c-0.2,0.5-0.5,1-0.7,1.5c-0.8,1.8-1.7,3.7-2.5,5.5c-0.2,0.4-0.6,0.5-0.9,0.3
		c-0.2-0.2-0.3-0.4-0.2-0.7c0.4-1.3,0.8-2.6,1.3-3.9c0.5-1.4,1-2.8,1.5-4.2c0.2-0.6,0.6-1.2,1.2-1.6C25.7,6.2,26.3,6,27,5.9
		c0.9-0.1,1.8-0.1,2.8,0C30.6,6,31.4,6.2,32,6.8c0.4,0.4,0.7,0.9,0.9,1.4c0.5,1.4,1,2.8,1.5,4.2c0.4,1.3,0.8,2.6,1.3,3.8
		c0.1,0.4,0,0.7-0.3,0.8c-0.3,0.1-0.7,0-0.8-0.4c-1-2.1-1.9-4.2-2.9-6.4c-0.1-0.2-0.2-0.4-0.3-0.6c0,0.1,0,0.2,0,0.4
		c0,1.5-0.1,2.9-0.1,4.4c-0.1,1.4,0.1,2.7,0.1,4.1c0,1,0.1,1.9,0.1,2.9c0,1.3,0.1,2.6,0.1,3.9c0,1,0.1,1.9,0.1,2.9
		c0,0.5,0,1,0.1,1.5c0,0.3-0.1,0.6-0.3,0.8c-0.3,0.3-0.7,0.3-1.1,0.2c-0.4-0.1-0.6-0.4-0.7-0.8c-0.1-1.1-0.2-2.2-0.3-3.3
		c-0.1-1-0.2-2.1-0.3-3.1c-0.1-1-0.2-2.1-0.3-3.1c-0.1-0.7-0.1-1.4-0.2-2.1c0,0.3-0.1,0.6-0.1,0.9c-0.1,0.8-0.2,1.6-0.2,2.3
		c-0.1,0.8-0.1,1.5-0.2,2.3c-0.1,0.8-0.2,1.5-0.2,2.3c-0.1,0.7-0.1,1.3-0.2,2c-0.1,0.7-0.1,1.4-0.2,2.1c-0.1,0.5-0.6,0.9-1.1,0.9
		c-0.5,0-0.9-0.5-0.9-1c0-0.7,0-1.5,0.1-2.2c0-1,0.1-1.9,0.1-2.9c0-1.3,0.1-2.6,0.1-4c0-1,0.1-1.9,0.1-2.9c0-0.7,0.1-1.5,0.1-2.2
		c0-0.4,0-0.9,0-1.3C25.7,12.9,25.6,11.4,25.6,9.8C25.6,9.8,25.6,9.8,25.6,9.8z"/>
	<path class="st0" d="M17.9,25.6c-0.2,1.3-0.4,2.6-0.5,3.8c0,0.3-0.1,0.7-0.1,1c-0.1,0.4-0.6,0.6-1,0.4c-0.2-0.1-0.3-0.3-0.3-0.5
		c0-0.6,0-1.2,0.1-1.8c0-0.7,0.1-1.5,0.1-2.2c0-0.8,0.1-1.5,0.1-2.3c0-0.3,0-0.5,0-0.8c0-0.6-0.1-1.1-0.1-1.7c0-0.2-0.1-0.4-0.3-0.5
		c-0.8-0.3-1.3-0.9-1.8-1.6c-0.4-0.6-0.8-1.2-1.2-1.7c-0.1-0.1-0.1-0.2-0.1-0.4c0-0.2,0.1-0.3,0.2-0.4c0.2-0.1,0.3-0.1,0.4,0
		c0.1,0.1,0.2,0.3,0.3,0.4c0.6,0.7,1.1,1.3,1.8,1.8c0.2,0.2,0.5,0.3,0.8,0.4c0.1,0,0.2,0,0.3,0c0.9-0.2,1.8-0.2,2.7,0
		c0.1,0,0.3,0,0.4,0c0.5-0.2,0.9-0.5,1.3-0.8c0.5-0.5,0.9-1,1.4-1.5c0.1-0.1,0.1-0.1,0.2-0.2c0.1-0.1,0.3-0.1,0.4,0
		c0.1,0.1,0.2,0.3,0.1,0.5c0,0.1-0.1,0.1-0.1,0.2c-0.5,0.8-1.1,1.6-1.7,2.4c-0.3,0.4-0.7,0.7-1.1,0.9c-0.3,0.1-0.5,0.4-0.5,0.7
		c0,0.8-0.1,1.6-0.1,2.3c0,0.9,0.1,1.8,0.1,2.8c0,0.9,0.1,1.8,0.1,2.8c0,0.2,0,0.5,0,0.7c0,0.3-0.3,0.6-0.6,0.6
		c-0.3,0-0.6-0.2-0.7-0.5c-0.1-0.8-0.2-1.6-0.4-2.4C18.1,27.2,18,26.4,17.9,25.6C17.9,25.6,17.9,25.6,17.9,25.6
		C17.9,25.6,17.9,25.6,17.9,25.6z"/>
	<path class="st0" d="M7.3,5.2c-1.4,0-2.6-1.2-2.6-2.6C4.7,1.2,5.8,0,7.3,0c1.4,0,2.6,1.2,2.6,2.6C9.9,4.1,8.7,5.2,7.3,5.2z"/>
	<path class="st0" d="M28.5,0c1.5,0,2.6,1.2,2.6,2.6c0,1.4-1.2,2.6-2.6,2.6c-1.5,0-2.6-1.2-2.6-2.6C25.8,1.2,27,0,28.5,0z"/>
	<path class="st0" d="M16.3,17.5c0-0.9,0.7-1.6,1.6-1.6c0.9,0,1.6,0.7,1.6,1.6c0,0.9-0.7,1.6-1.6,1.6C17,19.2,16.3,18.4,16.3,17.5z"
		/>
</g>
</svg>
