<?xml version="1.0" encoding="utf-8"?>
<!-- Generator: Adobe Illustrator 19.2.0, SVG Export Plug-In . SVG Version: 6.00 Build 0)  -->
<svg version="1.1" id="icon-accessories" xmlns="http://www.w3.org/2000/svg" xmlns:xlink="http://www.w3.org/1999/xlink" x="0px"
	 y="0px" width="35.6px" height="20.1px" viewBox="0 0 35.6 20.1" style="enable-background:new 0 0 35.6 20.1;"
	 xml:space="preserve">
<style type="text/css">
	.st0{fill:#008CD1;}
</style>
<path class="st0" d="M6.8,11c0,0-0.9-1.4-1.3-1.5C5.1,9.3,3.8,9,2.6,9.8s-2.3,2.6-2.5,4.8s-0.1,3.9,1.3,5s3.1-0.2,3.1-0.2l1.1-0.3
	l0.3-0.2L9.8,19l1.1-0.5l0.7-0.2l0.3,0.7l0.7,0.4c0,0,1.5,0.5,1.7,0.5c0.2,0,1.3,0.3,2.1-1.9c0,0,1.1-0.6,3.1-1.3
	c2-0.7,3.9-1.6,6.1-2.8s4.8-2.9,4.8-2.9s0.9-1.1,1.2-1.5s1.2-1,1.2-1l0.7-0.2c0,0,0.9,0.3,1.4-0.3c0.5-0.6,1.3-1.7,0.3-2.8
	c0,0,0-0.5-0.4-0.5c-0.4,0-1.7-0.3-1.7-0.3s-1.2,0.6-1.4,0.6S31,4,31,4l-0.3-0.4l-4.4-2.3c0,0-0.8-1.3-1.5-1.3s-2.3,1-2.6,2.7
	s-0.5,3.2-0.4,3.8c0.1,0.7,0.7,2.4,1.5,2.4s1.5-0.6,1.5-0.6l1.1-0.3l3.5-0.2h0.4l-2.1,1.4l-4.9,2.6c0,0-0.9,0.6-1.1,0.7
	c-0.3,0.1-5.6,1.8-5.6,1.8l-1.6,0.7l-1.1-0.3l-0.9,0.6L12,15.3l-0.3-0.5l-0.1-0.4l-0.4-0.5L6.8,11z"/>
</svg>
