<?xml version="1.0" encoding="utf-8"?>
<!-- Generator: Adobe Illustrator 19.2.0, SVG Export Plug-In . SVG Version: 6.00 Build 0)  -->
<svg version="1.1" id="icon-cartridges" xmlns="http://www.w3.org/2000/svg" xmlns:xlink="http://www.w3.org/1999/xlink" x="0px"
	 y="0px" width="9.2px" height="35.6px" viewBox="0 0 9.2 35.6" style="enable-background:new 0 0 9.2 35.6;" xml:space="preserve">
<style type="text/css">
	.st0{fill:#008CD1;}
</style>
<g>
	<polyline class="st0" points="7.8,8.1 7.8,6.8 9.2,6.8 9.2,9.1 8.6,9.1 8.6,9.7 9.2,9.7 9.2,11.5 8.6,11.5 8.6,24.5 9.1,24.5 
		9.1,32.7 0.1,32.7 0.1,24.5 0.6,24.5 0.6,11.5 0,11.5 0,9.7 0.6,9.7 0.6,9.1 0,9.1 0,6.8 1.4,6.8 1.4,8.1 	"/>
	<rect x="2.5" class="st0" width="4.2" height="6.6"/>
	<polygon class="st0" points="0.1,34 0.1,34.7 0.6,35.3 1.2,35.6 8,35.6 8.6,35.3 9.1,34.7 9.1,34 	"/>
</g>
</svg>
