<?xml version="1.0" encoding="utf-8"?>
<!-- Generator: Adobe Illustrator 19.2.0, SVG Export Plug-In . SVG Version: 6.00 Build 0)  -->
<svg version="1.1" id="icon-valves" xmlns="http://www.w3.org/2000/svg" xmlns:xlink="http://www.w3.org/1999/xlink" x="0px"
	 y="0px" width="31.3px" height="30.8px" viewBox="0 0 31.3 30.8" style="enable-background:new 0 0 31.3 30.8;"
	 xml:space="preserve">
<style type="text/css">
	.st0{fill:#008CD1;}
</style>
<path class="st0" d="M0,24.7c0-1.8,0-3.5,0-5.3c0-0.6,0.2-0.8,0.8-0.8c0.4,0,0.7,0,1.1,0c0.5,0,0.7,0.2,0.7,0.7c0,0.1,0,0.2,0,0.3
	c0,0.5,0.2,0.7,0.7,0.8c0.9,0,1.9,0,2.8,0c1.1,0,2.1,0,3.2,0c1.3,0,2-0.8,2-2c0-2.1,0-4.3,0-6.4c0-0.6-0.1-0.7-0.7-0.7
	c-1.1,0-1.1,0-1.1-1.1c0-0.2,0-0.5,0-0.7c0-0.7,0.1-0.8,0.8-0.8c1,0,2.1,0,3.1,0c0.6,0,0.7-0.1,0.7-0.7c0-0.6,0-1.1,0-1.7
	c0-0.5-0.1-0.6-0.6-0.6c-0.4,0-0.9,0-1.3,0c-0.5,0-0.6-0.1-0.6-0.6c0-1.5,0-3,0-4.5c0-0.4,0.2-0.6,0.6-0.6c2.3,0,4.6,0,6.8,0
	c0.4,0,0.6,0.2,0.6,0.6c0,1.5,0,3,0,4.5c0,0.4-0.2,0.5-0.5,0.5c-0.5,0-0.9,0-1.4,0c-0.5,0-0.6,0.1-0.6,0.6c0,0.6,0,1.2,0,1.9
	c0,0.5,0.1,0.6,0.6,0.6c1.1,0,2.2,0,3.3,0c0.5,0,0.7,0.1,0.7,0.6c0,0.5,0,0.9,0,1.4c0,0.4-0.2,0.6-0.6,0.5c-1.4-0.1-1.2,0.1-1.2,1.2
	c0,1.9,0,3.9,0,5.8c0,1.4,0.7,2.1,2.2,2.1c1.9,0,3.9,0,5.8,0c0.7,0,0.9-0.2,0.9-0.9c0-0.8,0.2-0.9,0.9-0.9c0.3,0,0.6,0,0.9,0
	c0.5,0,0.7,0.2,0.7,0.7c0,0.1,0,0.2,0,0.3c0,3.4,0,6.8,0,10.2c0,0.8-0.1,1-1,1c-0.3,0-0.6,0-0.9,0c-0.5,0-0.7-0.2-0.7-0.7
	c0-0.1,0-0.3,0-0.4c0-0.4-0.2-0.6-0.7-0.6c-0.1,0-0.2,0-0.3,0c-8.1,0-16.2,0-24.2,0c-0.8,0-1,0.1-1,1c0,0.6-0.2,0.8-0.8,0.8
	c-0.3,0-0.6,0-0.8,0c-0.7,0-0.9-0.2-0.9-0.9C0,28.2,0,26.4,0,24.7z"/>
</svg>
